<svg xmlns="http://www.w3.org/2000/svg" viewBox="0 0 1600 900" preserveAspectRatio="xMidYMax slice">
<defs><linearGradient id="sky" x1="0" y1="0" x2="0" y2="1"><stop offset="0" stop-color="#8ec3f0"/><stop offset="1" stop-color="#e3f0fc"/></linearGradient></defs>
<rect width="1600" height="900" fill="url(#sky)"/>
<circle cx="1420" cy="130" r="62" fill="#f4c542" stroke="#1b1b1b" stroke-width="6" stroke-linejoin="round"/>
<path transform="translate(150 90) scale(1)" d="M0 60 a36 36 0 0 1 40 -40 a50 50 0 0 1 92 6 a34 34 0 0 1 28 48 a20 20 0 0 1 -14 14 h-130 a28 28 0 0 1 -16 -28z" fill="#fff" stroke="#1b1b1b" stroke-width="6" stroke-linejoin="round"/><path transform="translate(620 60) scale(0.8)" d="M0 60 a36 36 0 0 1 40 -40 a50 50 0 0 1 92 6 a34 34 0 0 1 28 48 a20 20 0 0 1 -14 14 h-130 a28 28 0 0 1 -16 -28z" fill="#fff" stroke="#1b1b1b" stroke-width="6" stroke-linejoin="round"/><path transform="translate(1080 120) scale(0.7)" d="M0 60 a36 36 0 0 1 40 -40 a50 50 0 0 1 92 6 a34 34 0 0 1 28 48 a20 20 0 0 1 -14 14 h-130 a28 28 0 0 1 -16 -28z" fill="#fff" stroke="#1b1b1b" stroke-width="6" stroke-linejoin="round"/>
<rect x="-10" y="660" width="1620" height="260" fill="#7cc36b" stroke="#1b1b1b" stroke-width="6" stroke-linejoin="round"/>
<rect x="-10" y="740" width="1620" height="180" fill="#e8dfc8" stroke="#1b1b1b" stroke-width="6" stroke-linejoin="round"/>
<path d="M0 820 H1600" stroke="#cfc4a8" stroke-width="5" stroke-dasharray="60 40"/>
<rect x="186" y="540" width="28" height="124" fill="#8a5a33" stroke="#1b1b1b" stroke-width="6" stroke-linejoin="round"/><circle cx="200" cy="490" r="80" fill="#5aa64a" stroke="#1b1b1b" stroke-width="6" stroke-linejoin="round"/><circle cx="150" cy="530" r="50" fill="#5aa64a" stroke="#1b1b1b" stroke-width="6" stroke-linejoin="round"/><circle cx="252" cy="532" r="48" fill="#5aa64a" stroke="#1b1b1b" stroke-width="6" stroke-linejoin="round"/><rect x="760" y="250" width="640" height="420" fill="#fffbf0" stroke="#1b1b1b" stroke-width="6" stroke-linejoin="round"/><path d="M740.0 250 h68.0 v70 a34.0 34.0 0 0 1 -68.0 0z" fill="#e4572e" stroke="#1b1b1b" stroke-width="6" stroke-linejoin="round"/><path d="M808.0 250 h68.0 v70 a34.0 34.0 0 0 1 -68.0 0z" fill="#fff" stroke="#1b1b1b" stroke-width="6" stroke-linejoin="round"/><path d="M876.0 250 h68.0 v70 a34.0 34.0 0 0 1 -68.0 0z" fill="#e4572e" stroke="#1b1b1b" stroke-width="6" stroke-linejoin="round"/><path d="M944.0 250 h68.0 v70 a34.0 34.0 0 0 1 -68.0 0z" fill="#fff" stroke="#1b1b1b" stroke-width="6" stroke-linejoin="round"/><path d="M1012.0 250 h68.0 v70 a34.0 34.0 0 0 1 -68.0 0z" fill="#e4572e" stroke="#1b1b1b" stroke-width="6" stroke-linejoin="round"/><path d="M1080.0 250 h68.0 v70 a34.0 34.0 0 0 1 -68.0 0z" fill="#fff" stroke="#1b1b1b" stroke-width="6" stroke-linejoin="round"/><path d="M1148.0 250 h68.0 v70 a34.0 34.0 0 0 1 -68.0 0z" fill="#e4572e" stroke="#1b1b1b" stroke-width="6" stroke-linejoin="round"/><path d="M1216.0 250 h68.0 v70 a34.0 34.0 0 0 1 -68.0 0z" fill="#fff" stroke="#1b1b1b" stroke-width="6" stroke-linejoin="round"/><path d="M1284.0 250 h68.0 v70 a34.0 34.0 0 0 1 -68.0 0z" fill="#e4572e" stroke="#1b1b1b" stroke-width="6" stroke-linejoin="round"/><path d="M1352.0 250 h68.0 v70 a34.0 34.0 0 0 1 -68.0 0z" fill="#fff" stroke="#1b1b1b" stroke-width="6" stroke-linejoin="round"/><rect x="800.0" y="150" width="560" height="86" rx="18" fill="#e4572e" stroke="#1b1b1b" stroke-width="6" stroke-linejoin="round"/><text x="1080" y="212" text-anchor="middle" font-size="56" fill="#fff" font-family="Arial Rounded MT Bold, Trebuchet MS, Arial, sans-serif" font-weight="900">SNACK COUNTER</text><rect x="800" y="350" width="260" height="190" rx="12" fill="#1b1b1b" stroke="#1b1b1b" stroke-width="6" stroke-linejoin="round"/><text x="930" y="410" text-anchor="middle" font-size="30" fill="#f4c542" font-family="Arial Rounded MT Bold, Trebuchet MS, Arial, sans-serif" font-weight="900">MENU</text><text x="930" y="460" text-anchor="middle" font-size="30" fill="#fff" font-family="Arial Rounded MT Bold, Trebuchet MS, Arial, sans-serif" font-weight="900">Sandwich ₹50</text><text x="930" y="510" text-anchor="middle" font-size="30" fill="#fff" font-family="Arial Rounded MT Bold, Trebuchet MS, Arial, sans-serif" font-weight="900">Pizza ₹120</text><rect x="1100" y="350" width="260" height="190" fill="#e3f0fc" stroke="#1b1b1b" stroke-width="6" stroke-linejoin="round"/><circle cx="1180" cy="460" r="46" fill="#f4c542" stroke="#1b1b1b" stroke-width="6" stroke-linejoin="round"/><circle cx="1165" cy="445" r="8" fill="#e4572e"/><circle cx="1195" cy="470" r="8" fill="#e4572e"/><path d="M1250 480 l90 0 l-45 -60z" fill="#f4c542" stroke="#1b1b1b" stroke-width="6" stroke-linejoin="round"/><rect x="780" y="560" width="600" height="110" fill="#7cc36b" stroke="#1b1b1b" stroke-width="6" stroke-linejoin="round"/>
</svg>